<svg width="185" height="34" viewBox="0 0 185 34" fill="none" xmlns="http://www.w3.org/2000/svg">
<path d="M0.6 24.5V22.388C1.09067 22.3667 1.496 22.3027 1.816 22.196C2.15733 22.0893 2.41333 21.844 2.584 21.46C2.776 21.076 2.872 20.4573 2.872 19.604V7.348C2.872 6.772 2.88267 6.21733 2.904 5.684C2.94667 5.15067 2.97867 4.74533 3 4.468C2.65867 4.48933 2.232 4.51067 1.72 4.532C1.208 4.532 0.834667 4.54267 0.6 4.564V2.1H9.784V4.212C9.31467 4.23333 8.90933 4.29733 8.568 4.404C8.22667 4.51067 7.96 4.756 7.768 5.14C7.59733 5.50267 7.512 6.12133 7.512 6.996V19.252C7.512 19.828 7.50133 20.372 7.48 20.884C7.45867 21.396 7.42667 21.7907 7.384 22.068H11.672C12.9307 22.0467 13.912 21.6093 14.616 20.756C15.3413 19.8813 15.704 18.5693 15.704 16.82H17.848L17.656 24.5H0.6ZM25.9985 25.012C24.7185 25.012 23.6838 24.7667 22.8945 24.276C22.1265 23.7853 21.5612 23.0173 21.1985 21.972C20.8572 20.9267 20.6865 19.5827 20.6865 17.94V14.26C20.6865 13.876 20.6972 13.4387 20.7185 12.948C20.7398 12.436 20.7612 11.9453 20.7825 11.476C20.4412 11.4973 20.0358 11.5187 19.5665 11.54C19.1185 11.54 18.7772 11.5507 18.5425 11.572V9.14H18.8625C20.1852 9.14 21.2305 9.03333 21.9985 8.82C22.7665 8.60667 23.2572 8.39333 23.4705 8.18H25.2305V17.972C25.2305 19.3587 25.4118 20.3933 25.7745 21.076C26.1372 21.7373 26.7132 22.068 27.5025 22.068C28.0572 22.068 28.6118 21.9187 29.1665 21.62C29.7425 21.3 30.2118 20.9373 30.5745 20.532V14.26C30.5745 13.876 30.5852 13.4387 30.6065 12.948C30.6278 12.436 30.6598 11.9453 30.7025 11.476C30.3612 11.4973 29.9558 11.5187 29.4865 11.54C29.0385 11.54 28.6972 11.5507 28.4625 11.572V9.14H29.2305C30.2332 9.14 31.1185 9.03333 31.8865 8.82C32.6545 8.58533 33.1452 8.372 33.3585 8.18H35.1185V19.348C35.1185 19.6467 35.1078 20.0733 35.0865 20.628C35.0652 21.1613 35.0332 21.6733 34.9905 22.164C35.3318 22.1213 35.7052 22.1 36.1105 22.1C36.5372 22.0787 36.8572 22.068 37.0705 22.068V24.5H30.9905C30.9692 24.2227 30.9372 23.9453 30.8945 23.668C30.8732 23.3907 30.8412 23.1133 30.7985 22.836C30.1372 23.3907 29.4225 23.892 28.6545 24.34C27.9078 24.788 27.0225 25.012 25.9985 25.012ZM39.1238 24.5V22.452C39.5504 22.2813 39.9558 22.0147 40.3398 21.652C40.7238 21.2893 41.1291 20.8627 41.5558 20.372L44.3398 17.172C43.9984 16.7667 43.6464 16.3613 43.2838 15.956C42.9424 15.5293 42.6011 15.1133 42.2598 14.708C41.9184 14.3027 41.5664 13.8973 41.2038 13.492C40.9478 13.172 40.6171 12.756 40.2118 12.244C39.8064 11.7107 39.5291 11.252 39.3798 10.868L38.5158 10.932V8.5H45.5878V10.548C44.9904 10.5693 44.7238 10.7613 44.7878 11.124C44.8731 11.4653 45.1078 11.86 45.4918 12.308L46.9638 14.036L48.2118 12.564C48.4678 12.2653 48.7238 11.9667 48.9798 11.668C49.2358 11.3693 49.5024 11.0813 49.7798 10.804L48.2118 10.932V8.5H53.8438V10.548C53.4171 10.7187 53.0118 10.932 52.6278 11.188C52.2651 11.444 51.9238 11.732 51.6038 12.052C51.2838 12.3507 50.9638 12.7027 50.6438 13.108L48.4998 15.732L52.2118 20.052C52.5104 20.3933 52.7878 20.7347 53.0438 21.076C53.2998 21.396 53.5344 21.748 53.7478 22.132L54.8358 22.068V24.5H47.2838V22.452C47.9664 22.4093 48.3184 22.2493 48.3398 21.972C48.3824 21.6733 48.2118 21.3107 47.8278 20.884L45.9078 18.868L44.4038 20.66C44.2971 20.8093 44.0731 21.0653 43.7318 21.428C43.4118 21.7907 43.1558 22.0467 42.9638 22.196L44.4358 22.068V24.5H39.1238ZM74.831 9.236C74.6177 7.23067 73.9137 5.67333 72.719 4.564C71.5457 3.45467 70.031 2.9 68.175 2.9C67.0443 2.9 65.9777 3.14533 64.975 3.636C63.9937 4.10533 63.1297 4.788 62.383 5.684C61.6363 6.58 61.0497 7.65733 60.623 8.916C60.1963 10.1747 59.983 11.5933 59.983 13.172C59.983 15.1773 60.367 16.948 61.135 18.484C61.903 20.02 62.9377 21.2147 64.239 22.068C65.5403 22.9213 66.9803 23.348 68.559 23.348C69.9457 23.348 71.311 23.0387 72.655 22.42C73.999 21.78 75.0977 20.8627 75.951 19.668L76.783 20.34C75.8657 21.5987 74.8737 22.5693 73.807 23.252C72.7403 23.9347 71.6737 24.3933 70.607 24.628C69.5617 24.884 68.6017 25.012 67.727 25.012C66.127 25.012 64.655 24.724 63.311 24.148C61.9883 23.572 60.8363 22.772 59.855 21.748C58.895 20.7027 58.1483 19.4973 57.615 18.132C57.103 16.7453 56.847 15.252 56.847 13.652C56.847 12.1373 57.071 10.6653 57.519 9.236C57.9883 7.80667 58.6817 6.516 59.599 5.364C60.5163 4.212 61.6683 3.29467 63.055 2.612C64.463 1.92933 66.095 1.588 67.951 1.588C69.1457 1.588 70.2763 1.748 71.343 2.068C72.4097 2.388 73.4337 2.87867 74.415 3.54L74.255 1.812H75.983V9.236H74.831ZM89.43 23.54C90.0913 23.54 90.55 23.38 90.806 23.06C91.062 22.7187 91.2113 22.26 91.254 21.684C91.2967 21.0867 91.318 20.404 91.318 19.636V15.156C91.318 13.3213 91.0193 11.9453 90.422 11.028C89.846 10.1107 88.9287 9.66267 87.67 9.684C86.8807 9.70533 86.102 9.89733 85.334 10.26C84.5873 10.6227 83.9793 11.092 83.51 11.668V21.108C83.51 21.5347 83.4993 21.9187 83.478 22.26C83.4567 22.58 83.414 22.9213 83.35 23.284C83.6913 23.2627 84.022 23.252 84.342 23.252C84.6833 23.2307 85.0247 23.2093 85.366 23.188V24.5H78.838V23.54C79.4993 23.54 79.958 23.38 80.214 23.06C80.47 22.7187 80.6193 22.26 80.662 21.684C80.726 21.0867 80.758 20.404 80.758 19.636V4.5C80.758 4.15867 80.758 3.83867 80.758 3.54C80.7793 3.22 80.8113 2.84667 80.854 2.42C80.47 2.44133 80.086 2.46267 79.702 2.484C79.3393 2.50533 78.966 2.52667 78.582 2.548V1.204C79.5207 1.204 80.246 1.16133 80.758 1.076C81.2913 0.990665 81.686 0.883998 81.942 0.755999C82.2193 0.627999 82.4327 0.489332 82.582 0.339998H83.51V10.1C83.9793 9.69467 84.502 9.34267 85.078 9.044C85.6753 8.724 86.2833 8.468 86.902 8.276C87.542 8.084 88.1607 7.988 88.758 7.988C90.614 7.988 91.9473 8.57467 92.758 9.748C93.59 10.9 94.0167 12.7027 94.038 15.156L94.07 21.108C94.07 21.5347 94.0593 21.9187 94.038 22.26C94.038 22.58 94.006 22.9213 93.942 23.284C94.2833 23.2627 94.614 23.252 94.934 23.252C95.2753 23.2307 95.6167 23.2093 95.958 23.188V24.5H89.43V23.54ZM108.042 24.5C107.978 24.1373 107.936 23.8173 107.914 23.54C107.893 23.2627 107.861 22.9747 107.818 22.676C107.093 23.4013 106.304 23.9773 105.45 24.404C104.618 24.8093 103.733 25.012 102.794 25.012C101.173 25.012 99.9676 24.6493 99.1783 23.924C98.3889 23.1773 97.9943 22.2707 97.9943 21.204C97.9943 20.2227 98.2929 19.38 98.8903 18.676C99.5089 17.9507 100.298 17.364 101.258 16.916C102.24 16.4467 103.296 16.1053 104.426 15.892C105.578 15.6573 106.688 15.5507 107.754 15.572V13.588C107.754 12.8413 107.69 12.1373 107.562 11.476C107.434 10.8147 107.157 10.2707 106.73 9.844C106.304 9.41733 105.621 9.19333 104.682 9.172C104.064 9.15067 103.424 9.268 102.762 9.524C102.122 9.78 101.653 10.2173 101.354 10.836C101.525 11.0067 101.632 11.2093 101.674 11.444C101.738 11.6573 101.77 11.86 101.77 12.052C101.77 12.308 101.664 12.6067 101.45 12.948C101.237 13.268 100.864 13.4173 100.33 13.396C99.8823 13.396 99.5409 13.2467 99.3063 12.948C99.0716 12.628 98.9543 12.2547 98.9543 11.828C98.9543 11.1027 99.2209 10.452 99.7543 9.876C100.309 9.3 101.066 8.84133 102.026 8.5C102.986 8.15867 104.074 7.988 105.29 7.988C107.082 7.988 108.405 8.468 109.258 9.428C110.112 10.3667 110.528 11.86 110.506 13.908C110.506 14.6973 110.506 15.4973 110.506 16.308C110.506 17.0973 110.496 17.8973 110.474 18.708C110.474 19.4973 110.474 20.2973 110.474 21.108C110.474 21.4493 110.464 21.7907 110.442 22.132C110.421 22.4733 110.389 22.8573 110.346 23.284C110.73 23.2627 111.104 23.2413 111.466 23.22C111.85 23.1987 112.234 23.1773 112.618 23.156V24.5H108.042ZM107.754 16.66C107.029 16.6813 106.261 16.7773 105.45 16.948C104.661 17.0973 103.925 17.332 103.242 17.652C102.581 17.972 102.037 18.3987 101.61 18.932C101.205 19.444 101.013 20.0733 101.034 20.82C101.077 21.6093 101.333 22.2067 101.802 22.612C102.293 22.996 102.869 23.188 103.53 23.188C104.405 23.188 105.162 23.028 105.802 22.708C106.464 22.3667 107.114 21.8973 107.754 21.3C107.733 21.0653 107.722 20.8093 107.722 20.532C107.722 20.2547 107.722 19.9667 107.722 19.668C107.722 19.5613 107.722 19.22 107.722 18.644C107.744 18.068 107.754 17.4067 107.754 16.66ZM123.518 0.179998C124.308 0.158665 124.916 0.297332 125.342 0.595999C125.769 0.873332 125.982 1.28933 125.982 1.844C125.982 1.99333 125.94 2.17467 125.854 2.388C125.79 2.60133 125.662 2.78267 125.47 2.932C125.278 3.06 125.022 3.124 124.702 3.124C124.297 3.124 123.977 2.97467 123.742 2.676C123.508 2.37733 123.401 1.99333 123.422 1.524C123.358 1.48133 123.23 1.44933 123.038 1.428C122.846 1.38533 122.665 1.37466 122.494 1.396C121.982 1.43867 121.556 1.652 121.214 2.036C120.894 2.39867 120.628 2.9 120.414 3.54C120.201 4.15867 120.03 4.89467 119.902 5.748C119.774 6.58 119.668 7.49733 119.582 8.5H124.126L124.03 9.748L119.486 9.812C119.465 10.3667 119.433 10.932 119.39 11.508C119.369 12.084 119.337 12.6813 119.294 13.3C119.273 13.8973 119.241 14.5053 119.198 15.124C119.156 15.7213 119.102 16.3293 119.038 16.948C118.889 18.5053 118.75 20.0627 118.622 21.62C118.494 23.156 118.302 24.6173 118.046 26.004C117.812 27.3907 117.46 28.6173 116.99 29.684C116.521 30.772 115.87 31.6253 115.038 32.244C114.228 32.8627 113.182 33.172 111.902 33.172C111.092 33.172 110.473 33.0227 110.046 32.724C109.62 32.4467 109.406 32.0413 109.406 31.508C109.406 31.3373 109.449 31.1453 109.534 30.932C109.62 30.74 109.758 30.5587 109.95 30.388C110.142 30.2387 110.398 30.1747 110.718 30.196C111.102 30.2173 111.412 30.356 111.646 30.612C111.86 30.8893 111.966 31.2413 111.966 31.668C112.201 31.8387 112.51 31.924 112.894 31.924C113.641 31.924 114.206 31.5293 114.59 30.74C114.996 29.9507 115.294 28.852 115.486 27.444C115.678 26.0573 115.828 24.4467 115.934 22.612C116.062 20.756 116.222 18.772 116.414 16.66C116.457 16.084 116.5 15.508 116.542 14.932C116.585 14.356 116.628 13.78 116.67 13.204C116.713 12.628 116.756 12.0627 116.798 11.508C116.862 10.932 116.926 10.3773 116.99 9.844L114.174 9.876L114.334 8.5H117.15C117.385 6.94267 117.726 5.54533 118.174 4.308C118.622 3.07067 119.273 2.07867 120.126 1.332C120.98 0.585332 122.11 0.201331 123.518 0.179998ZM133.925 0.179998C134.714 0.158665 135.322 0.297332 135.749 0.595999C136.175 0.873332 136.389 1.28933 136.389 1.844C136.389 1.99333 136.346 2.17467 136.261 2.388C136.197 2.60133 136.069 2.78267 135.877 2.932C135.685 3.06 135.429 3.124 135.109 3.124C134.703 3.124 134.383 2.97467 134.149 2.676C133.914 2.37733 133.807 1.99333 133.829 1.524C133.765 1.48133 133.637 1.44933 133.445 1.428C133.253 1.38533 133.071 1.37466 132.901 1.396C132.389 1.43867 131.962 1.652 131.621 2.036C131.301 2.39867 131.034 2.9 130.821 3.54C130.607 4.15867 130.437 4.89467 130.309 5.748C130.181 6.58 130.074 7.49733 129.989 8.5H134.533L134.437 9.748L129.893 9.812C129.871 10.3667 129.839 10.932 129.797 11.508C129.775 12.084 129.743 12.6813 129.701 13.3C129.679 13.8973 129.647 14.5053 129.605 15.124C129.562 15.7213 129.509 16.3293 129.445 16.948C129.295 18.5053 129.157 20.0627 129.029 21.62C128.901 23.156 128.709 24.6173 128.453 26.004C128.218 27.3907 127.866 28.6173 127.397 29.684C126.927 30.772 126.277 31.6253 125.445 32.244C124.634 32.8627 123.588 33.172 122.308 33.172C121.498 33.172 120.879 33.0227 120.452 32.724C120.026 32.4467 119.812 32.0413 119.812 31.508C119.812 31.3373 119.855 31.1453 119.94 30.932C120.026 30.74 120.164 30.5587 120.356 30.388C120.548 30.2387 120.804 30.1747 121.124 30.196C121.508 30.2173 121.818 30.356 122.052 30.612C122.266 30.8893 122.372 31.2413 122.372 31.668C122.607 31.8387 122.916 31.924 123.3 31.924C124.047 31.924 124.613 31.5293 124.997 30.74C125.402 29.9507 125.701 28.852 125.893 27.444C126.085 26.0573 126.234 24.4467 126.341 22.612C126.469 20.756 126.629 18.772 126.821 16.66C126.863 16.084 126.906 15.508 126.949 14.932C126.991 14.356 127.034 13.78 127.077 13.204C127.119 12.628 127.162 12.0627 127.205 11.508C127.269 10.932 127.333 10.3773 127.397 9.844L124.581 9.876L124.741 8.5H127.557C127.791 6.94267 128.133 5.54533 128.581 4.308C129.029 3.07067 129.679 2.07867 130.533 1.332C131.386 0.585332 132.517 0.201331 133.925 0.179998ZM143.371 25.012C141.899 25.012 140.565 24.6707 139.371 23.988C138.197 23.284 137.269 22.3027 136.587 21.044C135.904 19.764 135.563 18.26 135.563 16.532C135.563 15.0387 135.893 13.6413 136.555 12.34C137.237 11.0387 138.187 9.99333 139.403 9.204C140.619 8.39333 142.027 7.988 143.627 7.988C144.523 7.988 145.355 8.13733 146.123 8.436C146.912 8.71333 147.605 9.15067 148.203 9.748C148.8 10.324 149.269 11.06 149.611 11.956C149.952 12.8307 150.123 13.8653 150.123 15.06L138.859 15.252C138.859 16.8733 139.029 18.3027 139.371 19.54C139.733 20.756 140.309 21.7053 141.099 22.388C141.888 23.0493 142.901 23.38 144.139 23.38C144.8 23.38 145.472 23.2627 146.155 23.028C146.859 22.7933 147.509 22.4733 148.107 22.068C148.704 21.6627 149.184 21.2147 149.547 20.724L150.315 21.364C149.739 22.26 149.045 22.9747 148.235 23.508C147.424 24.0413 146.592 24.4253 145.739 24.66C144.885 24.8947 144.096 25.012 143.371 25.012ZM138.955 13.908H147.115C147.115 13.14 146.997 12.404 146.763 11.7C146.549 10.9747 146.187 10.388 145.675 9.94C145.163 9.47067 144.491 9.236 143.659 9.236C142.421 9.236 141.387 9.60933 140.555 10.356C139.744 11.0813 139.211 12.2653 138.955 13.908ZM159.723 25.012C158.571 25.012 157.6 24.7987 156.811 24.372C156.043 23.9453 155.456 23.22 155.051 22.196C154.667 21.172 154.475 19.7853 154.475 18.036V12.34C154.475 11.9987 154.475 11.6573 154.475 11.316C154.496 10.9747 154.539 10.6227 154.603 10.26C154.24 10.2813 153.867 10.3027 153.483 10.324C153.12 10.324 152.757 10.3347 152.395 10.356V9.044H153.387C154.304 9.044 154.965 8.95867 155.371 8.788C155.797 8.596 156.128 8.39333 156.363 8.18H157.291V17.94C157.291 19.7747 157.547 21.1507 158.059 22.068C158.592 22.964 159.488 23.4013 160.747 23.38C161.557 23.3587 162.325 23.1133 163.051 22.644C163.797 22.1533 164.395 21.5773 164.843 20.916V12.692C164.843 12.18 164.853 11.7427 164.875 11.38C164.896 10.996 164.939 10.6227 165.003 10.26C164.619 10.2813 164.235 10.3027 163.851 10.324C163.467 10.324 163.083 10.3347 162.699 10.356V9.044H163.691C164.608 9.044 165.269 8.95867 165.675 8.788C166.101 8.596 166.432 8.39333 166.667 8.18H167.595L167.562 20.276C167.562 20.6173 167.552 21.0973 167.531 21.716C167.509 22.3347 167.477 22.8573 167.435 23.284C167.819 23.2627 168.203 23.2413 168.587 23.22C168.971 23.1987 169.355 23.1773 169.739 23.156V24.5H165.163C165.099 24.1373 165.045 23.796 165.003 23.476C164.981 23.156 164.96 22.8573 164.939 22.58C164.277 23.2413 163.477 23.8173 162.539 24.308C161.6 24.7773 160.661 25.012 159.723 25.012ZM172.064 23.54C172.726 23.54 173.184 23.38 173.44 23.06C173.696 22.7187 173.846 22.26 173.888 21.684C173.931 21.0867 173.952 20.404 173.952 19.636V12.34C173.952 11.9987 173.952 11.6573 173.952 11.316C173.974 10.9747 174.016 10.6227 174.08 10.26C173.696 10.2813 173.312 10.3027 172.928 10.324C172.566 10.324 172.192 10.3347 171.808 10.356V9.044H172.8C173.718 9.044 174.347 8.95867 174.688 8.788C175.051 8.596 175.35 8.39333 175.584 8.18H176.512C176.555 8.52133 176.587 8.948 176.608 9.46C176.63 9.95067 176.651 10.58 176.672 11.348C176.992 10.8147 177.43 10.292 177.984 9.78C178.539 9.268 179.158 8.84133 179.84 8.5C180.544 8.15867 181.28 7.988 182.048 7.988C182.646 7.988 183.168 8.148 183.616 8.468C184.064 8.788 184.288 9.3 184.288 10.004C184.288 10.1747 184.235 10.388 184.128 10.644C184.022 10.8787 183.851 11.092 183.616 11.284C183.382 11.4547 183.072 11.54 182.688 11.54C182.219 11.5187 181.846 11.3373 181.568 10.996C181.291 10.6333 181.184 10.2173 181.248 9.748C180.715 9.72667 180.16 9.86533 179.584 10.164C179.03 10.4627 178.507 10.8787 178.016 11.412C177.526 11.924 177.088 12.532 176.704 13.236L176.736 21.108C176.736 21.5347 176.726 21.9187 176.704 22.26C176.704 22.58 176.672 22.9213 176.608 23.284C176.95 23.2627 177.28 23.252 177.6 23.252C177.942 23.2307 178.283 23.2093 178.624 23.188V24.5H172.064V23.54Z" fill="#A55C30"/>
</svg>
